<?xml version="1.0" encoding="UTF-8" standalone="no"?>
<!-- Created with Inkscape (http://www.inkscape.org/) -->

<svg
   version="1.1"
   id="svg1"
   width="401.33334"
   height="320"
   viewBox="0 0 401.33334 320"
   sodipodi:docname="Responsive.svg"
   inkscape:version="1.4.3 (0d15f75, 2025-12-25)"
   xmlns:inkscape="http://www.inkscape.org/namespaces/inkscape"
   xmlns:sodipodi="http://sodipodi.sourceforge.net/DTD/sodipodi-0.dtd"
   xmlns="http://www.w3.org/2000/svg"
   xmlns:svg="http://www.w3.org/2000/svg">
  <defs
     id="defs1" />
  <sodipodi:namedview
     id="namedview1"
     pagecolor="#505050"
     bordercolor="#eeeeee"
     borderopacity="1"
     inkscape:showpageshadow="0"
     inkscape:pageopacity="0"
     inkscape:pagecheckerboard="0"
     inkscape:deskcolor="#505050"
     inkscape:zoom="2.671875"
     inkscape:cx="200.60819"
     inkscape:cy="160"
     inkscape:window-width="1920"
     inkscape:window-height="1057"
     inkscape:window-x="-8"
     inkscape:window-y="-8"
     inkscape:window-maximized="1"
     inkscape:current-layer="g1" />
  <g
     inkscape:groupmode="layer"
     inkscape:label="Image"
     id="g1">
    <path
       style="fill:#000000"
       d="m 243.80809,300.6448 c -1.93888,-1.05331 -4.18888,-3.81882 -5,-6.14558 -0.982,-2.81698 -1.47475,-21.98386 -1.47475,-57.36485 V 184 h -5.33333 -5.33334 l -0.0197,40.33333 c -0.0216,44.42083 -0.18217,45.41079 -7.9989,49.33126 -3.88161,1.94683 -8.40459,2.33161 -27.42764,2.33334 l -22.77952,0.002 2.06831,7.93874 2.0683,7.93874 6.04455,0.39459 c 5.02413,0.32798 6.04455,0.84477 6.04455,3.06126 0,2.59941 -1.00674,2.67559 -39.91311,3.02022 -24.58246,0.21776 -40.41131,-0.14464 -41.21016,-0.94349 -2.30244,-2.30244 1.78879,-5.41006 7.12244,-5.41006 5.00562,0 5.00613,-5.7e-4 7.02119,-8 l 2.0152,-8 H 97.808293 c -24.603588,0 -29.618956,-1.18791 -33.053068,-7.82875 -1.803086,-3.48678 -2.088557,-12.06375 -2.088557,-62.75067 l 0,-58.71184 3.887318,-4.35437 L 70.441304,138 87.838439,137.56168 105.23557,137.12336 105.61779,90.590479 106,44.057601 l 3.69697,-3.695467 3.69697,-3.695467 h 94.75181 94.75181 l 3.21789,3.741018 3.21789,3.741018 0,51.925649 V 148 H 312.37 c 4.03498,0 8.52116,3.27733 10.97096,8.01473 1.68833,3.26488 1.99238,13.85324 1.99238,69.38422 0,71.30736 -0.10756,72.3995 -7.46032,75.74964 -5.28789,2.40932 -69.50666,1.9725 -74.06493,-0.50379 z m 71.89524,-5.38707 c 2.3062,-1.61532 2.96334,-3.38939 2.96334,-8 v -5.9244 H 280.49626 242.32585 L 243.19264,287 c 1.55934,10.19422 2.07079,10.33333 37.99174,10.33333 26.40234,0 32.03955,-0.33896 34.51895,-2.0756 z m -39.5,-5.01274 c -2.1946,-2.64434 1.15852,-5.23547 6.04938,-4.67467 5.5549,0.63695 5.25909,5.61549 -0.36627,6.16443 -2.36596,0.23089 -4.78037,-0.40202 -5.68311,-1.48976 z m -110.0847,-0.41666 c -0.45835,-1.19442 -1.49377,-4.79442 -2.30094,-8 L 162.3501,276 h -18.27939 -18.27938 l -1.56233,6.76839 c -0.85928,3.72261 -1.56233,7.32261 -1.56233,8 0,0.70382 9.48896,1.23161 22.14265,1.23161 19.91251,0 22.05872,-0.21872 21.30931,-2.17167 z M 318.66667,228 v -46.66667 l -37.66666,-2.2e-4 -37.66667,-2.2e-4 v 46.66411 46.6641 l 37.66667,0.003 37.66666,0.003 z m -67.74797,36.33333 c 0.39498,-2.05918 2.52133,-2.37704 18.09777,-2.70536 16.96771,-0.35765 17.6502,-0.26743 17.6502,2.33333 0,2.58539 -0.80259,2.70537 -18.09776,2.70537 -16.51758,0 -18.05869,-0.20374 -17.65021,-2.33334 z m 0.18984,-11.7717 c -0.46174,-1.20327 -0.004,-2.69468 1.03051,-3.35915 1.02353,-0.65728 12.66096,-1.04672 25.86096,-0.86543 23.00124,0.3159 24,0.44059 24,2.99628 0,2.55908 -1.00985,2.68131 -25.03052,3.02954 -22.07482,0.32001 -25.12857,0.10732 -25.86095,-1.80124 z m -0.19521,-13.52438 c 0.41157,-2.13713 2.29299,-2.37058 19.10494,-2.37058 15.68747,0 18.6484,0.31755 18.6484,2 0,1.66748 -3.17636,2.06161 -19.10494,2.37058 -17.70176,0.34336 -19.0714,0.19647 -18.6484,-2 z m 0.21154,-11.76639 c -0.44676,-1.16423 -0.23985,-2.68921 0.45979,-3.38885 0.74858,-0.74857 12.48157,-1.12322 28.51038,-0.91038 26.22885,0.3483 27.2383,0.46053 27.2383,3.02837 0,2.56952 -1.00905,2.6798 -27.6981,3.02715 -24.28416,0.31605 -27.79821,0.0996 -28.51037,-1.75629 z m -0.90264,-12.15975 c -1.61506,-1.61506 -0.99185,-25.14149 0.71111,-26.84444 1.69037,-1.69037 54.75841,-2.40207 58.95762,-0.79068 1.73597,0.66615 2.10905,3.26056 2.10905,14.66666 V 216 h -30.44445 c -16.74444,0 -30.84444,-0.4 -31.33333,-0.88889 z M 306.66667,202 v -8.66667 H 281.33334 256.00001 V 202 v 8.66667 h 25.33333 25.33333 z m -88.63997,65.47869 c 1.97272,-1.44248 2.6554,-3.96109 3.07197,-11.33333 l 0.53559,-9.47869 H 144.81713 68.000002 v 7.42099 c 0,7.25906 1.59462,12.26329 4.532939,14.22526 0.806883,0.53877 33.302379,0.98877 72.212219,1 58.33977,0.0168 71.18993,-0.3048 73.28154,-1.83423 z m -76.36003,-5.70091 c -2.45234,-0.98094 -2.02904,-6.68675 0.57006,-7.68412 3.26622,-1.25337 6.78803,2.65036 4.97875,5.51867 -1.59512,2.52879 -3.13657,3.13034 -5.54881,2.16545 z M 74.712984,197.19092 c -0.09243,-35.57228 0.223638,-43.75511 1.738627,-45.01244 1.356136,-1.12549 19.828278,-1.44416 69.033329,-1.19091 l 67.18173,0.34576 0.35118,45.08684 0.35117,45.08685 3.64883,-0.42018 3.64882,-0.42017 v -46.12971 c 0,-37.13942 -0.35664,-46.55918 -1.82992,-48.33333 C 217.17631,144.2041 210.33217,144 144.94173,144 c -65.186224,0 -72.297833,0.21063 -74.503407,2.20665 -2.273506,2.05749 -2.438321,5.35304 -2.438321,48.75523 v 46.54858 l 3.412972,-0.4219 3.412973,-0.42189 z M 208.00001,212 V 182.66667 H 144.66667 81.333335 V 212 241.33333 h 63.333335 63.33334 z M 89.472379,229.44748 c -1.023526,-0.64809 -1.492357,-2.1389 -1.041846,-3.31291 C 89.160914,224.23122 94.530427,224 138,224 c 43.46958,0 48.83909,0.23122 49.56947,2.13457 0.45051,1.17401 -0.0183,2.66482 -1.04184,3.31291 -2.43016,1.53877 -94.625092,1.53877 -97.055251,0 z m -0.02962,-13.9823 c -0.992459,-1.19584 -1.411093,-6.1142 -1.16326,-13.66666 L 88.666669,190 123.90734,189.64406 c 27.30446,-0.27578 35.48214,0.0245 36.31292,1.33333 1.72339,2.71512 1.32552,22.9435 -0.48692,24.75594 -2.5061,2.5061 -68.196137,2.2555 -70.290578,-0.26815 z m 65.223908,-12.79851 v -8 H 124 93.333336 v 8 8 H 124 154.66667 Z m 14.94703,13.53482 c -1.25263,-0.79472 -1.61473,-4.50069 -1.33333,-13.64625 L 168.66667,190 h 16 16 l 0.38717,11.79852 c 0.24783,7.55246 -0.1708,12.47082 -1.16326,13.66666 -1.14503,1.37968 -5.08119,1.86281 -15.05383,1.84774 -7.42688,-0.0112 -14.27725,-0.51138 -15.22305,-1.11143 z m 25.05297,-13.53482 v -8 H 184 173.33334 v 8 8 H 184 194.66667 Z m 42.66667,-28.83758 c 0,-4.35616 -0.1656,-4.49576 -5.33333,-4.49576 -5.13388,0 -5.33334,0.16291 -5.33334,4.35591 0,4.1697 0.228,4.36189 5.33334,4.49576 5.19538,0.13622 5.33333,0.0236 5.33333,-4.35591 z m -29.33333,-7.16242 v -9.33334 H 144.66667 81.333335 V 166.66667 176 h 63.333335 63.33334 z m -119.733341,2.4 C 86.282616,167.08261 87.829593,164 90.809321,164 c 1.587575,0 2.524015,0.93644 2.524015,2.52401 0,2.97973 -3.082615,4.52671 -5.066667,2.54266 z m 10.733334,0.64319 c -0.916667,-0.32931 -1.666667,-1.74875 -1.666667,-3.1543 0,-3.02703 4.664804,-3.55424 5.778094,-0.65304 0.86395,2.25141 -1.73728,4.66025 -4.111427,3.80734 z m 9.276387,-0.71017 c -1.97649,-2.38152 0.18281,-5.62043 3.02092,-4.53135 2.39505,0.91907 2.32678,4.99195 -0.0972,5.79891 -0.80661,0.26853 -2.12229,-0.30188 -2.92373,-1.26756 z m 210.39028,-2.33302 c 0,-13.53315 0.55728,-13.33334 -37.18562,-13.33334 -38.00081,0 -37.58143,-0.14292 -38.54187,13.13502 l -0.59302,8.19832 h 38.16026 38.16025 z m -50.19957,-0.70596 c -1.45575,-3.79361 1.5324,-4.74534 13.65457,-4.34904 10.86,0.35504 11.87834,0.61694 11.87834,3.055 0,2.44722 -1.01678,2.69824 -12.35587,3.05033 -10.34456,0.32121 -12.48954,0.0353 -13.17704,-1.75629 z m -31.13376,-4.75499 c 0,-4.02194 3.92061,-10.07484 7.61643,-11.75877 C 246.80917,148.59975 256.942,148 269.39608,148 h 21.27059 V 110.66667 73.333333 H 207.33334 124 v 31.999997 32 l 45.66667,0.005 c 43.29006,0.005 45.89392,0.14353 50.03324,2.66728 5.30487,3.23438 6.96676,7.22951 6.96676,16.74787 V 164 h 5.33334 c 4.52563,0 5.33333,-0.42318 5.33333,-2.79428 z m -106.07907,-36.2643 c -0.36412,-0.94888 -0.49529,-10.69888 -0.29148,-21.66666 l 0.37055,-19.941427 76.33333,-0.344253 76.33334,-0.344252 v 22.010922 22.01092 h -76.04185 c -60.98047,0 -76.17298,-0.34172 -76.70389,-1.72525 z m 147.4124,-20.27475 V 88 h -70.66666 -70.66667 v 15.98821 15.98821 l 70.33333,0.35717 c 38.68334,0.19644 70.48334,0.50174 70.66667,0.67845 0.18333,0.17671 0.33333,-7.17871 0.33333,-16.34537 z m -89.19429,8.78081 c -1.02352,-0.64809 -1.49236,-2.1389 -1.04184,-3.31291 0.69469,-1.81035 3.53467,-2.13457 18.69769,-2.13457 13.2078,0 18.26129,0.46112 19.34346,1.76506 3.11898,3.75815 -1.19474,4.90219 -18.40502,4.88119 -9.20333,-0.0112 -17.57076,-0.55067 -18.59429,-1.19877 z m -0.86533,-13.543955 c -0.49942,-0.808066 -0.35107,-2.026171 0.32966,-2.706899 0.72169,-0.721683 17.59979,-1.090158 40.48383,-0.883823 33.83929,0.305113 39.24613,0.629399 39.24613,2.353864 0,1.724923 -5.4431,2.048553 -39.5758,2.353033 -27.73727,0.24743 -39.84742,-0.0865 -40.48382,-1.116175 z m 115.39296,-1.99118 c 0,-31.976895 -0.49907,-51.020178 -1.38025,-52.666667 -1.34436,-2.511959 -3.7987,-2.579011 -94.4,-2.579011 -70.57092,0 -93.40589,0.386134 -94.61976,1.6 C 112.41775,45.448915 112,57.807407 112,91.6 v 45.73333 h 3.31512 3.31511 L 118.98178,93.666667 119.33334,50 206.51835,49.656949 c 63.2915,-0.249036 87.68241,0.06976 89,1.16326 1.46938,1.219482 1.81499,10.615267 1.81499,49.343051 V 148 h 3.33333 3.33334 z M 290.66689,61.666667 290.6671,55.333333 207.33355,55.686478 124,56.039623 V 62.019812 68 h 83.33334 83.33333 z M 129.78111,63.24371 c -1.11128,-2.895948 1.70992,-5.619352 3.72927,-3.6 1.70671,1.706712 0.6494,5.689623 -1.51038,5.689623 -0.77936,0 -1.77786,-0.94033 -2.21889,-2.089623 z m 9.03238,0.266528 c -1.15267,-1.388882 -1.01931,-2.232847 0.55991,-3.543491 2.54841,-2.11499 5.39217,0.115039 4.17883,3.276963 -0.98761,2.573652 -2.7421,2.672333 -4.73874,0.266528 z m 10.64775,0.568807 c -2.01504,-1.24536 -1.08697,-5.412378 1.20543,-5.412378 1.95221,0 3.28789,3.912109 1.83256,5.367435 -0.66866,0.668669 -1.99699,0.688319 -3.03799,0.04494 z"
       id="path1" />
  </g>
</svg>
