<?xml version="1.0" encoding="UTF-8" standalone="no"?>
<!-- Created with Inkscape (http://www.inkscape.org/) -->

<svg
   version="1.1"
   id="svg1"
   width="401.33334"
   height="320"
   viewBox="0 0 401.33334 320"
   sodipodi:docname="Tools.svg"
   inkscape:version="1.4.3 (0d15f75, 2025-12-25)"
   xmlns:inkscape="http://www.inkscape.org/namespaces/inkscape"
   xmlns:sodipodi="http://sodipodi.sourceforge.net/DTD/sodipodi-0.dtd"
   xmlns="http://www.w3.org/2000/svg"
   xmlns:svg="http://www.w3.org/2000/svg">
  <defs
     id="defs1" />
  <sodipodi:namedview
     id="namedview1"
     pagecolor="#505050"
     bordercolor="#eeeeee"
     borderopacity="1"
     inkscape:showpageshadow="0"
     inkscape:pageopacity="0"
     inkscape:pagecheckerboard="0"
     inkscape:deskcolor="#505050"
     inkscape:zoom="2.671875"
     inkscape:cx="200.60819"
     inkscape:cy="160"
     inkscape:window-width="1920"
     inkscape:window-height="1057"
     inkscape:window-x="-8"
     inkscape:window-y="-8"
     inkscape:window-maximized="1"
     inkscape:current-layer="g1" />
  <g
     inkscape:groupmode="layer"
     inkscape:label="Image"
     id="g1">
    <path
       style="fill:#000000;stroke-width:1.19845"
       d="m 117.04255,290.61474 c -13.72907,-6.60997 -20.246936,-22.86135 -14.08567,-35.12065 3.59848,-7.16001 88.60905,-90.25735 92.33545,-90.25735 1.51837,0 3.0556,0.83541 3.41606,1.85646 0.36047,1.02106 -18.87907,20.93441 -42.75453,44.25191 -23.87545,23.31749 -44.27408,43.92162 -45.33026,45.78694 -2.73722,4.83416 -2.37396,16.26748 0.64619,20.33872 3.43781,4.63423 10.88071,8.10011 17.39485,8.10011 6.42655,0 13.49862,-4.40276 20.89574,-13.00879 3.02552,-3.51997 20.35855,-23.02242 38.51786,-43.33877 31.16273,-34.86441 38.65202,-41.44723 38.00129,-33.40179 -0.11199,1.38446 -12.05772,15.68135 -26.54612,31.77083 -14.48839,16.08948 -32.15852,35.89138 -39.26695,44.00423 -17.98843,20.53016 -29.53306,25.6097 -43.22391,19.01815 z m 188.01673,-0.0295 c -20.10148,-6.77107 -30.66294,-21.27759 -31.66863,-43.4979 l -0.58223,-12.86395 -45.05192,-45.77193 c -24.77856,-25.17457 -45.05193,-46.89497 -45.05193,-48.26756 0,-4.07827 -41.72086,-44.770281 -46.25615,-45.115481 -2.14516,-0.163266 -6.26143,-0.760527 -9.14725,-1.327231 -4.28282,-0.84103 -6.0187,-0.301704 -9.44683,2.935101 -3.55125,3.353061 -3.94813,4.590631 -2.56985,8.013471 1.2001,2.98037 1.00306,5.19272 -0.74713,8.38834 -3.30267,6.0302 -13.45357,14.11751 -17.719838,14.11751 -5.274815,0 -34.052529,-28.964647 -34.113481,-34.33507 -0.06109,-5.382173 15.179103,-19.268479 19.359936,-17.640079 9.639625,3.754577 13.483489,0.951975 13.483489,-9.830978 0,-7.184666 0.148642,-7.379004 19.498664,-25.492925 23.2551,-21.769542 31.62562,-26.209912 51.45092,-27.293531 13.59794,-0.743242 33.49148,3.574832 37.50485,8.140764 3.44657,3.921096 0.51075,8.426817 -6.17863,9.482599 -13.36901,2.110025 -27.53005,7.481161 -32.79679,12.439481 -6.02296,5.670272 -6.65214,9.957123 -2.79668,19.055115 1.40133,3.306795 2.32634,6.74434 2.0556,7.638974 -0.68581,2.266152 42.79149,45.41405 45.76076,45.41405 1.32879,0 4.04569,1.65681 6.03753,3.68179 1.99185,2.02498 22.80045,22.58901 46.24133,45.69785 l 42.61978,42.01606 11.64785,-0.17723 c 20.31159,-0.30905 34.65985,8.19066 42.82453,25.36864 3.62854,7.63421 4.24737,10.92027 3.84131,20.39792 -0.67304,15.70937 -3.28074,15.77402 -19.35433,0.47986 -6.76081,-6.43296 -13.58018,-11.69631 -15.15415,-11.69631 -3.70166,0 -13.96948,8.52451 -17.05607,14.16021 -2.38021,4.34594 -2.28688,4.50261 11.0208,18.50071 11.50411,12.10095 13.09233,14.42798 11.11804,16.28997 -3.92819,3.70474 -19.28633,4.28748 -28.7735,1.09177 z m 8.58015,-15.9124 c -14.10823,-14.12083 -14.52526,-18.15436 -3.07702,-29.76113 8.35102,-8.46667 16.46661,-12.70895 21.28624,-11.12701 1.63336,0.53611 8.04572,5.59485 14.24968,11.24163 l 11.27994,10.26689 -1.06926,-7.76349 c -1.74343,-12.65837 -8.7047,-23.9689 -18.12526,-29.44955 -7.43807,-4.32729 -9.20415,-4.69115 -21.74461,-4.4801 l -13.64904,0.22971 -38.11009,-37.49447 C 243.71946,155.71335 222.41999,134.81575 217.34787,129.8962 l -9.22206,-8.94464 -9.49502,9.05966 -9.49504,9.05966 41.35877,41.80784 c 22.74733,22.99431 43.45137,44.46855 46.00899,47.72051 4.14501,5.27032 4.63273,7.12588 4.4893,17.07969 -0.18465,12.81517 2.25831,19.41859 10.43833,28.21518 6.78012,7.29116 16.36269,11.59736 25.90836,11.64264 l 7.1882,0.0341 z M 193.21545,124.26255 c 5.12121,-4.9519 5.9407,-6.55842 4.55424,-8.92801 -0.92989,-1.58925 -10.227,-10.89166 -20.66025,-20.672032 L 158.1399,76.880019 152.40148,83.01727 c -3.15614,3.375488 -5.76922,6.709241 -5.80688,7.408339 -0.0708,1.315528 37.88032,39.531071 39.4763,39.751291 0.49479,0.0682 3.70984,-2.59319 7.14455,-5.91435 z m -90.11179,-9.63132 c 4.5382,-4.15313 5.13384,-5.59085 4.41441,-10.65523 -1.60118,-11.271511 7.71925,-18.283342 22.17481,-16.682296 l 7.78867,0.862656 9.7452,-10.088375 c 9.49353,-9.827836 9.69526,-10.218779 7.81124,-15.138142 -1.06367,-2.777373 -1.93395,-7.945385 -1.93395,-11.484471 0,-11.198091 11.95394,-20.948477 31.65724,-25.82165 8.20451,-2.029202 8.4233,-2.212696 4.41419,-3.702052 -9.00701,-3.346041 -22.25444,-3.816772 -32.01513,-1.137617 -13.03033,3.576615 -15.58236,5.289286 -35.71241,23.966614 -16.9534,15.729929 -17.6781,16.671707 -17.6781,22.973741 0,11.785071 -14.065934,22.278724 -21.038418,15.695368 -1.520388,-1.435544 -3.076427,-0.845375 -6.906791,2.619538 -2.719344,2.459905 -4.944262,5.549119 -4.944262,6.864926 0,2.08968 24.131277,26.5279 26.194711,26.5279 0.430391,0 3.14325,-2.16041 6.02859,-4.80091 z m 19.57763,162.99983 c -8.80152,-4.71647 -10.34072,-16.03118 -3.04882,-22.41195 6.05883,-5.30176 12.75262,-4.97676 19.0006,0.92253 4.31225,4.07158 4.87433,5.51782 4.03731,10.38789 -0.53481,3.11177 -2.29368,6.9053 -3.90856,8.43007 -3.78868,3.57724 -11.88135,4.92168 -16.08053,2.67146 z m 11.33495,-9.52804 c 1.30904,-1.97168 1.30904,-3.46277 0,-5.43445 -4.61054,-6.94445 -14.55926,-1.31644 -10.45931,5.91684 2.14838,3.79027 7.79555,3.52982 10.45931,-0.48239 z m 129.5282,-111.88594 c -1.35732,-1.54419 0.14268,-4.28378 6.2433,-11.40266 9.93519,-11.59347 20.81041,-18.33238 34.66259,-21.47894 26.08992,-5.92636 31.52419,-7.59423 38.65421,-11.86361 4.1704,-2.49718 7.34215,-5.18873 7.04834,-5.98121 -0.29382,-0.79247 -10.7094,-11.598158 -23.14573,-24.012611 -21.36277,-21.325197 -22.61152,-22.917564 -22.61152,-28.833664 0,-5.718518 1.15151,-7.394416 13.26935,-19.312218 l 13.26935,-13.050295 -7.10257,-0.993559 c -14.26664,-1.99572 -30.56582,3.844825 -41.87566,15.005455 -9.87128,9.741041 -13.16628,17.18754 -17.00477,38.429833 -1.87913,10.399081 -4.89528,22.638984 -6.70256,27.199783 -3.87062,9.767796 -21.65138,29.187506 -25.46054,27.807376 -3.82061,-1.38429 -2.90544,-3.37732 5.77176,-12.56959 11.29285,-11.96319 14.67677,-19.697854 19.00206,-43.433214 2.05784,-11.292585 5.35618,-23.68124 7.32963,-27.530346 5.37864,-10.490705 16.62417,-21.368971 27.42517,-26.529477 8.68675,-4.150359 11.15119,-4.592626 25.60002,-4.59415 14.27657,-0.0015 16.37483,0.363614 19.60239,3.411049 l 3.61445,3.412737 -13.02449,13.396292 c -17.67469,18.179214 -17.80254,18.367895 -15.41834,22.753242 3.25062,5.978996 13.53779,15.251188 16.92066,15.251188 1.87023,0 9.23578,-6.048801 17.96165,-14.750639 8.28834,-8.265479 16.12656,-14.750636 17.82823,-14.750636 4.82923,0 8.60757,14.700915 7.74533,30.135766 -0.85485,15.302403 -6.40707,27.970221 -16.62253,37.925498 -9.27165,9.03552 -19.20016,13.55436 -39.95369,18.18445 -22.36016,4.98851 -27.70892,7.68892 -39.69695,20.04161 -5.42574,5.59078 -10.24245,10.16506 -10.7038,10.16506 -0.46133,0 -1.64275,-0.91463 -2.62534,-2.03252 z m 97.71547,-65.638324 c 4.97494,-10.621424 6.6383,-24.010395 4.08849,-32.909605 l -1.90313,-6.642195 -14.31344,13.629338 -14.31343,13.629341 9.86684,10.465645 c 5.42677,5.756114 10.46258,10.472435 11.19069,10.480715 0.72813,0.0082 3.15092,-3.885678 5.38398,-8.653239 z M 253.78965,147.11153 c -1.47644,-1.39404 -0.20205,-3.73111 5.42676,-9.95201 8.09334,-8.94466 8.55254,-10.19898 4.8081,-13.13316 -2.16592,-1.69723 -3.75059,-0.87862 -10.56242,5.45633 -5.27865,4.90912 -8.89941,7.13243 -10.60756,6.51353 -4.21973,-1.5289 -3.05298,-4.15217 5.39407,-12.1278 9.0223,-8.51877 15.81303,-9.91264 21.61308,-4.43628 6.14774,5.80464 3.97175,13.24812 -7.14901,24.455 -5.57155,5.61471 -6.16449,5.82897 -8.92302,3.22439 z m 36.15113,-38.1601 c -8.16101,-7.14763 -18.43461,-18.76987 -18.43461,-20.854554 0,-2.680699 20.13115,-21.456483 23.00536,-21.456483 4.18115,0 26.32885,22.273862 26.32885,26.478818 0,4.026598 -17.68898,21.654829 -21.72945,21.654829 -1.38711,0 -5.51367,-2.62017 -9.17015,-5.82261 z m 16.61086,-9.116212 c 5.72045,-6.034085 7.60961,-9.9053 4.83301,-9.903588 -2.05698,0.0012 -15.13341,15.08228 -14.00299,16.14962 1.53974,1.4538 2.47303,0.8181 9.16998,-6.246032 z m -2.15601,-15.991882 c 0,-1.373625 -3.35609,0.785588 -8.14851,5.242489 -4.48166,4.167935 -7.72526,8.224636 -7.208,9.014893 1.23387,1.885015 15.35651,-11.226825 15.35651,-14.257382 z m -8.36822,-8.595176 c -1.24348,-1.138694 -3.92981,0.617023 -9.03356,5.904125 -9.68437,10.032256 -7.39444,12.640324 2.78576,3.172803 5.66377,-5.267281 7.49801,-7.932084 6.2478,-9.076928 z"
       id="path1" />
  </g>
</svg>
