<?xml version="1.0" encoding="UTF-8" standalone="no"?>
<!-- Created with Inkscape (http://www.inkscape.org/) -->

<svg
   version="1.1"
   id="svg1"
   width="353.33334"
   height="320"
   viewBox="0 0 353.33334 320"
   sodipodi:docname="Darstellung.svg"
   inkscape:version="1.4.3 (0d15f75, 2025-12-25)"
   xmlns:inkscape="http://www.inkscape.org/namespaces/inkscape"
   xmlns:sodipodi="http://sodipodi.sourceforge.net/DTD/sodipodi-0.dtd"
   xmlns="http://www.w3.org/2000/svg"
   xmlns:svg="http://www.w3.org/2000/svg">
  <defs
     id="defs1" />
  <sodipodi:namedview
     id="namedview1"
     pagecolor="#505050"
     bordercolor="#eeeeee"
     borderopacity="1"
     inkscape:showpageshadow="0"
     inkscape:pageopacity="0"
     inkscape:pagecheckerboard="0"
     inkscape:deskcolor="#505050"
     inkscape:zoom="2.671875"
     inkscape:cx="176.84211"
     inkscape:cy="160"
     inkscape:window-width="1920"
     inkscape:window-height="1057"
     inkscape:window-x="-8"
     inkscape:window-y="-8"
     inkscape:window-maximized="1"
     inkscape:current-layer="g1" />
  <g
     inkscape:groupmode="layer"
     inkscape:label="Image"
     id="g1">
    <path
       style="fill:#000000"
       d="M 51.781438,305.48103 C 44.454984,303.94542 40.50275,300.74303 38.091808,294.38871 36.132691,289.22523 35.95717,276.62163 36.293716,165.27408 36.642131,49.999544 36.821401,41.645377 39.018571,38.292648 44.56584,29.8279 43.259996,30 101.94076,30 c 48.52958,0 53.7852,0.214576 57.70334,2.355903 8.03656,4.392106 8.44247,6.576045 8.04591,43.289683 -0.34579,32.013304 -0.43806,33.021084 -3.02334,33.021084 -2.31112,0 -2.71998,-1.02218 -3.06654,-7.66667 l -0.39987,-7.666667 h -7.93346 -7.93346 V 98 c 0,4.08889 -0.4127,4.66667 -3.33334,4.66667 -3.18518,0 -3.33333,-0.35556 -3.33333,-8.000003 v -8 h 4 4 v -10 -10 H 94.666669 42.666668 v 104.000003 104 h 3.27941 c 3.187362,0 3.29028,-0.30876 3.666667,-11 l 0.387256,-11 51.416209,-0.34876 51.41621,-0.34876 1.33564,13.01542 c 0.73459,7.15849 1.08311,13.76543 0.77447,14.6821 -0.43699,1.29788 -12.92081,1.66666 -56.418512,1.66666 h -55.85735 v 3.13437 c 0,1.72391 0.681194,5.08845 1.513765,7.47676 C 46.902715,299.7536 48.771903,300 105.29051,300 155.11112,300 156,300.04674 156,302.66667 c 0,2.6113 -0.89275,2.6669 -43,2.67825 -23.649997,0.006 -45.999998,0.27 -49.666665,0.58582 -3.666667,0.31583 -8.865021,0.11346 -11.551897,-0.44971 z M 148,266.66667 v -8 H 102 56.000002 v 8 8 H 102 148 Z M 161.33334,76 v -9.333333 h -4 -4 V 76 85.333333 h 4 4 z m 0,-24.518955 c 0,-6.40109 -0.63366,-9.301495 -2.54886,-11.666666 l -2.54887,-3.147712 h -53.4141 -53.414101 l -2.972068,2.972067 c -2.303946,2.303947 -3.096524,4.926615 -3.525698,11.666667 L 42.356013,60 h 59.488667 59.48866 z M 84.506672,50.063849 c -1.557762,-4.059463 1.00927,-4.730516 18.096038,-4.730516 13.30821,0 17.26873,0.408459 17.81712,1.837527 C 121.90559,51.0427 118.193,52 101.69149,52 88.547485,52 85.100621,51.611654 84.506672,50.063849 Z M 172.41722,305.08392 c -2.33719,-0.61418 -5.48719,-2.69023 -7,-4.61345 -2.71478,-3.45128 -2.75055,-4.62992 -2.75055,-90.62925 V 122.70874 L 166.5573,118.35437 170.44793,114 h 67.55208 67.55208 l 3.89062,4.35437 3.89063,4.35437 0.1684,65.64563 c 0.0926,36.1051 0.37264,74.2627 0.62228,84.79467 0.49474,20.87205 -0.66677,26.35283 -6.34598,29.94468 -2.59715,1.64259 -13.68853,2.06193 -67.11137,2.53734 -35.2,0.31325 -65.91225,0.067 -68.24945,-0.54714 z m 132.99467,-8.75059 2.93875,-3.66666 L 307.51208,246 c -0.46121,-25.66667 -0.8401,-63.57381 -0.84198,-84.2381 -0.003,-32.37499 -0.29321,-37.86121 -2.09866,-39.66666 C 302.72476,120.24856 294.86814,120 238.34309,120 c -57.80544,0 -64.37369,0.21772 -66.57143,2.20665 -2.31404,2.09418 -2.43832,6.57576 -2.43832,87.92439 v 85.71775 l 2.96334,2.0756 C 174.8782,299.73256 183.45563,300 238.86658,300 h 63.60655 z m -76.07855,-5.58034 c 0,-3.42721 4.08166,-4.47244 12,-3.07296 3.91415,0.69179 6,1.74289 6,3.02354 0,1.49575 -2.14259,2.05696 -9,2.35735 -8.28023,0.36272 -9,0.17815 -9,-2.30793 z m -46.69501,-9.73836 c -0.0156,-0.19138 -0.39034,-31.69642 -0.83278,-70.0112 -0.63099,-54.6441 -0.44595,-70.09517 0.85828,-71.66667 1.42883,-1.72163 9.21219,-2.00343 55.33618,-2.00343 43.69112,0 53.95405,0.33807 55.18206,1.81773 1.0901,1.3135 1.41279,21.19364 1.16326,71.66667 l -0.34532,69.84894 -55.66667,0.34796 c -30.61667,0.19138 -55.67942,0.19138 -55.69501,0 z M 287.43481,209.33177 287.53628,144 h -49.90227 l -49.90227,0 0.46747,65.32822 0.46746,65.32821 49.33334,0.004 49.33333,0.004 z m -52.28255,-79.32285 c -0.46182,-1.20349 -0.20033,-2.82751 0.58108,-3.60892 2.03148,-2.03148 5.88055,-0.17478 5.3499,2.58066 -0.59107,3.06917 -4.86356,3.8099 -5.93098,1.02826 z M 96.240602,290.33333 c 0.381201,-2.68409 1.162105,-2.99406 7.415778,-2.94362 7.08303,0.0571 10.7139,1.8538 9.08209,4.49411 -0.49271,0.79723 -4.50217,1.44951 -8.90989,1.44951 -7.548216,0 -7.989281,-0.17438 -7.587978,-3 z M 49.573933,235.66667 c 0.273812,-1.92795 1.498125,-3.15226 3.426069,-3.42607 2.443307,-0.34701 3,0.20969 3,3 0,2.79031 -0.635756,3.42607 -3.426068,3.42607 -2.790313,0 -3.347006,-0.5567 -3.000001,-3 z m 13.092735,-0.33334 V 232 h 26.555557 c 20.045495,0 26.698075,0.40858 27.136925,1.66667 1.62537,4.65962 -0.22413,5 -27.168466,5 H 62.666668 Z m 62.907272,0.33334 c 0.34224,-2.40978 1.40978,-3.08142 5.42606,-3.41382 4.96483,-0.41091 5,-0.45547 5,-6.33334 0,-5.42526 0.27832,-5.91951 3.33334,-5.91951 3.23809,0 3.33333,0.26667 3.33333,9.33333 v 9.33334 h -8.7594 c -8.32118,0 -8.73809,-0.15009 -8.33333,-3 z M 49.333335,221.33333 c 0,-1.95555 0.888889,-2.66666 3.333333,-2.66666 2.444445,0 3.333334,0.71111 3.333334,2.66666 0,1.95556 -0.888889,2.66667 -3.333334,2.66667 -2.444444,0 -3.333333,-0.71111 -3.333333,-2.66667 z M 62.907267,221 c 0.416896,-2.93542 0.799224,-3 17.759402,-3 16.960178,0 17.342506,0.0646 17.759402,3 0.42398,2.9853 0.336957,3 -17.759402,3 -18.096359,0 -18.183382,-0.0147 -17.759402,-3 z M 50.222224,209.77778 c -0.488889,-0.48889 -0.888889,-1.98889 -0.888889,-3.33334 0,-1.71851 0.989899,-2.44444 3.333333,-2.44444 2.666667,0 3.333334,0.66667 3.333334,3.33333 0,2.34344 -0.725926,3.33334 -2.444445,3.33334 -1.344444,0 -2.844444,-0.4 -3.333333,-0.88889 z m 12.444444,-2.44445 V 204 h 26.587979 c 14.623383,0 26.925333,0.54585 27.337663,1.21301 0.41232,0.66716 0.38354,2.16716 -0.064,3.33333 -0.70603,1.83989 -4.32178,2.12033 -27.337656,2.12033 H 62.666668 Z M 125.33334,198 c 0,-3 0.53333,-3.33333 5.33333,-3.33333 H 136 v -7.42607 c 0,-6.93846 0.19699,-7.39809 3,-7 2.77635,0.3943 3.02904,1.19642 3.38942,10.7594 l 0.38942,10.33333 h -8.72275 c -8.41538,0 -8.72275,-0.11746 -8.72275,-3.33333 z m -62.666672,-5.33333 c 0,-3.21368 0.311112,-3.33334 8.666667,-3.33334 8.355556,0 8.666667,0.11966 8.666667,3.33334 0,3.21367 -0.311111,3.33333 -8.666667,3.33333 -8.355555,0 -8.666667,-0.11966 -8.666667,-3.33333 z m 32.000001,0 c 0,-3.27778 0.177778,-3.33334 10.666671,-3.33334 10.48889,0 10.66666,0.0556 10.66666,3.33334 0,3.27777 -0.17777,3.33333 -10.66666,3.33333 -10.488893,0 -10.666671,-0.0556 -10.666671,-3.33333 z M 54.000002,173.57621 50.000001,172.64048 V 159.32024 146 l 13.223141,-0.38431 c 9.680432,-0.28134 13.515111,0.0759 14.312917,1.33334 1.467115,2.31238 1.436398,24.7046 -0.03514,25.61406 -2.016023,1.24597 -19.317253,1.99183 -23.50092,1.01312 z M 71.733207,159.66667 72.133079,152 H 64.06654 56.000002 v 7.11111 c 0,3.91111 0.426953,7.53807 0.948784,8.0599 0.521831,0.52183 3.971832,0.77183 7.666667,0.55555 l 6.717882,-0.39323 z M 92.287662,173.7246 87.908655,173.15756 88.287662,159.57878 88.666669,146 H 102 115.33334 v 14 14 L 106,174.14582 c -5.13333,0.0802 -11.303884,-0.10935 -13.712338,-0.42122 z M 109.33334,160 v -8 H 102 94.666669 v 8 8 H 102 h 7.33334 z m 30.91912,13.67381 c -3.65289,-0.43155 -4.34277,-1.02329 -4,-3.43099 0.37316,-2.62113 1.20709,-2.90949 8.41421,-2.90949 7.62229,0 8,0.15577 8,3.29907 0,3.54062 -2.66405,4.1933 -12.41421,3.04141 z m -14.03023,-14.5627 c -0.48889,-0.48889 -0.88889,-6.41542 -0.88889,-13.17007 0,-8.89736 0.51407,-12.70783 1.86578,-13.82965 1.24199,-1.03076 5.81122,-1.34107 13.66667,-0.92815 6.49048,0.34117 11.95088,0.66451 12.13421,0.71853 0.18334,0.054 0.33334,6.39823 0.33334,14.09823 v 14 h -13.11111 c -7.21112,0 -13.51112,-0.4 -14,-0.88889 z M 147.73321,145.66667 147.33334,138 139.66667,137.60013 132,137.20026 v 8.06653 8.06654 h 8.06654 8.06654 z M 49.921933,131.61068 c -0.363574,-0.94745 -0.494743,-10.99745 -0.291487,-22.33333 l 0.369555,-20.610683 h 24.000001 24.000001 v 16.000003 c 0,15.11111 -0.148148,16 -2.666667,16 -2.458237,0 -2.696494,-1.0161 -3.048283,-13 L 91.903437,94.666667 H 73.951719 56.000002 v 16.000003 16 h 13.333333 13.333334 v -4 c 0,-3.55556 0.444445,-4 4,-4 3.959596,0 4,0.0741 4,7.33333 v 7.33333 H 70.624822 c -15.150862,0 -20.203167,-0.42039 -20.702889,-1.72265 z m 60.363037,0.8965 c -0.5234,-0.52339 -0.95163,-4.15162 -0.95163,-8.06274 v -7.11111 h 6.7332 6.73321 L 122.39988,125 122,132.66667 l -5.3817,0.39607 c -2.95994,0.21784 -5.80994,-0.0322 -6.33333,-0.55556 z M 109.33334,106 v -3.33333 H 122.66667 136 V 106 v 3.33333 h -13.33333 -13.33333 z m 0,-14.666667 C 109.33334,88.041756 109.47394,88 120.55762,88 133.52797,88 136,88.66316 136,92.142652 c 0,2.308196 -1.14008,2.524015 -13.33333,2.524015 h -13.33333 z m -59.517837,-12 c -1.277899,-3.330152 0.434766,-5.859238 3.43627,-5.074327 3.812089,0.996883 3.846208,7.074327 0.03972,7.074327 -1.489682,0 -3.053875,-0.9 -3.475985,-2 z m 12.000001,0 c -1.179454,-3.073606 0.575163,-6.247898 3.180466,-5.753808 1.411482,0.267685 2.504488,1.89121 2.759262,4.098543 0.341331,2.957259 -0.112231,3.655265 -2.37518,3.655265 -1.538392,0 -3.142439,-0.9 -3.564548,-2 z m 12.40672,1.111111 c -0.488889,-0.488888 -0.888889,-1.988888 -0.888889,-3.333333 0,-1.718518 0.989899,-2.444444 3.333334,-2.444444 2.666667,0 3.333333,0.666666 3.333333,3.333333 0,2.343434 -0.725926,3.333333 -2.444444,3.333333 -1.344445,0 -2.844445,-0.4 -3.333334,-0.888889 z"
       id="path1" />
  </g>
</svg>
