<?xml version="1.0" encoding="UTF-8" standalone="no"?>
<!-- Created with Inkscape (http://www.inkscape.org/) -->

<svg
   version="1.1"
   id="svg1"
   width="353.33334"
   height="320"
   viewBox="0 0 353.33334 320"
   sodipodi:docname="Handlungsbedarf.svg"
   inkscape:version="1.4.3 (0d15f75, 2025-12-25)"
   xml:space="preserve"
   xmlns:inkscape="http://www.inkscape.org/namespaces/inkscape"
   xmlns:sodipodi="http://sodipodi.sourceforge.net/DTD/sodipodi-0.dtd"
   xmlns="http://www.w3.org/2000/svg"
   xmlns:svg="http://www.w3.org/2000/svg"><defs
     id="defs1" /><sodipodi:namedview
     id="namedview1"
     pagecolor="#505050"
     bordercolor="#eeeeee"
     borderopacity="1"
     inkscape:showpageshadow="0"
     inkscape:pageopacity="0"
     inkscape:pagecheckerboard="0"
     inkscape:deskcolor="#505050"
     inkscape:zoom="2.671875"
     inkscape:cx="176.84211"
     inkscape:cy="160"
     inkscape:window-width="1920"
     inkscape:window-height="1057"
     inkscape:window-x="-8"
     inkscape:window-y="-8"
     inkscape:window-maximized="1"
     inkscape:current-layer="g1" /><g
     inkscape:groupmode="layer"
     inkscape:label="Image"
     id="g1"><path
       style="fill:#000000"
       d="m 83.398062,301.38731 c -7.598728,-4.63321 -8.398629,-7.90418 -8.393081,-34.3211 0.0044,-20.86782 0.307302,-24.22864 2.509253,-27.83959 5.423741,-8.89431 2.578001,-8.65616 98.640316,-8.25503 l 86.63179,0.36174 3.612,3.33334 c 6.35504,5.86473 7.26833,10.05318 7.26833,33.33333 0,24.27537 -1.16553,28.97798 -8.2531,33.29915 -4.30729,2.62609 -6.50048,2.69088 -91.08024,2.69088 -83.610165,0 -86.817208,-0.0918 -90.935268,-2.60272 z m 179.329818,-5.807 c 2.64829,-2.39738 4.83197,-7.62401 3.1473,-7.53306 -0.48135,0.026 -2.37518,0.90472 -4.20851,1.95275 -5.00743,2.8625 -168.536228,2.92594 -175.376164,0.068 -2.543113,-1.06258 -4.623842,-1.4435 -4.623842,-0.84648 0,2.31728 5.535185,7.96295 8.3599,8.52676 1.635389,0.32642 40.560796,0.51659 86.500906,0.42259 78.67808,-0.16099 83.68267,-0.31139 86.20041,-2.5906 z m -2.32069,-11.61984 C 265.44255,281.26563 267,275.64513 267,260.16851 c 0,-13.79464 -0.19722,-14.86497 -3.45186,-18.73288 l -3.45185,-4.1023 H 174.1542 88.212119 l -3.272728,3.27273 c -3.129041,3.12904 -3.272727,4.01163 -3.272727,20.10256 0,16.82363 0.0014,16.83128 3.897436,20.72728 l 3.897436,3.89743 h 84.190224 c 55.19296,0 85.07374,-0.47284 86.75543,-1.37286 z M 171.93498,219.1572 C 171.42074,218.64296 171,204.88542 171,188.58489 c 0,-34.38621 1.38681,-41.30618 11.13696,-55.57176 10.50044,-15.36332 24.19506,-22.99796 43.98052,-24.5188 l 11.04391,-0.8489 0.15802,-9.48938 c 0.0869,-5.219161 0.2006,-10.839383 0.25264,-12.489383 0.0542,-1.717764 0.93842,-3 2.06884,-3 1.96499,0 53.09302,38.982293 56.45819,43.046263 2.11471,2.55383 4.29813,0.54309 -29.09908,26.79764 -13.56666,10.66517 -25.71666,19.41331 -27,19.44032 -2.06192,0.0434 -2.33333,-1.42424 -2.33333,-12.61756 v -12.66666 h -6.73288 c -8.38348,0 -13.55005,2.59566 -17.89555,8.99064 -3.33798,4.91228 -3.37157,5.23654 -3.37157,32.54315 0,15.16979 -0.3642,28.53051 -0.80932,29.69049 -0.44513,1.15998 -1.90104,2.10905 -3.23537,2.10905 -2.12101,0 -2.49205,-1.46692 -2.95098,-11.66667 -0.87322,-19.40735 0.0146,-47.41639 1.63776,-51.66666 4.04234,-10.58513 14.51481,-16.5934 28.99917,-16.63739 9.20108,-0.0279 9.67974,0.12401 10.48395,3.32823 0.46347,1.84662 0.43173,6.64662 -0.0705,10.66666 -0.50227,4.02004 -0.54055,7.30916 -0.0851,7.30916 0.65314,0 39.69141,-29.6949 43.67117,-33.21897 0.92224,-0.81664 -41.71035,-34.781027 -43.65764,-34.781027 -0.50624,0 -0.54231,4.05 -0.0802,8.999997 0.46216,4.95 0.37306,9.66154 -0.19801,10.47009 -0.57107,0.80855 -6.90904,1.8117 -14.08438,2.22922 -10.72044,0.62381 -14.5234,1.46339 -21.33334,4.70978 -12.4455,5.93294 -20.92333,15.21787 -27.01871,29.59091 -2.18509,5.15249 -2.64273,10.51782 -3.23986,37.98394 -0.59691,27.45605 -0.98769,32.03993 -2.76037,32.37943 -1.13576,0.21752 -2.48576,-0.0253 -3,-0.5395 z m -32,-17.33333 C 139.42074,201.30963 139,192.26499 139,181.72466 c 0,-16.65926 -0.35559,-19.86124 -2.72045,-24.49675 -3.65761,-7.1695 -9.49536,-10.55 -18.22952,-10.55626 l -6.94996,-0.005 -0.38337,12.31809 c -0.30165,9.69249 -0.80967,12.39482 -2.38337,12.67801 -2.51977,0.45345 -57.333334,-41.84184 -57.333334,-44.23959 0,-2.40891 54.824314,-44.894273 57.333334,-44.429698 1.5697,0.290648 2.08193,2.978846 2.3808,12.494458 l 0.3808,12.12413 10.28587,0.81256 c 14.27168,1.12743 22.71524,3.96843 31.90884,10.73637 6.9178,5.0926 16.37703,16.5151 16.37703,19.77611 0,0.63062 -1.00748,1.53319 -2.23883,2.0057 -1.56874,0.60198 -3.26391,-0.50798 -5.66373,-3.70851 C 150.6705,122.43926 138.71717,116.23646 118.7468,114.91183 L 105,114 104.33333,103.62249 103.66666,93.244972 81.891351,110.14347 c -20.987121,16.28683 -21.686923,16.98425 -19.333334,19.26756 1.343089,1.30298 11.14198,9.03564 21.775314,17.18368 L 103.66666,161.40933 104.33333,151.038 105,140.66667 l 9.29707,-0.40103 c 11.42026,-0.49261 19.01178,2.12287 24.58469,8.47007 5.74875,6.54747 6.90746,12.65378 6.48851,34.19395 -0.30992,15.93419 -0.70685,19.10159 -2.43529,19.43311 -1.13576,0.21785 -2.48576,-0.0247 -3,-0.5389 z M 171.26667,95.733333 c -2.09931,-2.099302 -2.01878,-3.12408 0.43858,-5.581442 3.66434,-3.664336 9.13197,1.361162 5.82116,5.35044 -1.87216,2.255819 -4.15084,2.339909 -6.25974,0.231002 z m 0.62222,-13.955555 c -1.42856,-1.428554 -1.02329,-9.695515 0.6307,-12.865433 0.83577,-1.60179 4.2018,-5.807225 7.48005,-9.345412 5.2199,-5.633785 5.85538,-6.9585 5.11467,-10.662037 -1.06211,-5.310563 -4.3026,-8.609221 -9.47332,-9.643364 -5.12992,-1.025985 -10.83049,3.191246 -12.37603,9.155686 -0.76052,2.934964 -1.8998,4.249449 -3.68305,4.249449 -4.19931,0 -3.24803,-9.129623 1.46372,-14.047633 9.68487,-10.108821 24.99733,-7.046072 29.93654,5.987811 2.6016,6.865236 0.48958,13.295804 -6.76052,20.584126 -4.81081,4.836172 -6.55498,7.612115 -6.55498,10.432616 0,5.038372 -3.33807,8.593905 -5.77778,6.154191 z"
       id="path1" /></g></svg>
