<?xml version="1.0" encoding="UTF-8" standalone="no"?>
<!-- Created with Inkscape (http://www.inkscape.org/) -->

<svg
   version="1.1"
   id="svg1"
   width="353.33334"
   height="320"
   viewBox="0 0 353.33334 320"
   sodipodi:docname="Leistungentf.svg"
   inkscape:version="1.4.3 (0d15f75, 2025-12-25)"
   xml:space="preserve"
   xmlns:inkscape="http://www.inkscape.org/namespaces/inkscape"
   xmlns:sodipodi="http://sodipodi.sourceforge.net/DTD/sodipodi-0.dtd"
   xmlns="http://www.w3.org/2000/svg"
   xmlns:svg="http://www.w3.org/2000/svg"><defs
     id="defs1" /><sodipodi:namedview
     id="namedview1"
     pagecolor="#505050"
     bordercolor="#eeeeee"
     borderopacity="1"
     inkscape:showpageshadow="0"
     inkscape:pageopacity="0"
     inkscape:pagecheckerboard="0"
     inkscape:deskcolor="#505050"
     inkscape:zoom="2.671875"
     inkscape:cx="176.84211"
     inkscape:cy="160"
     inkscape:window-width="1920"
     inkscape:window-height="1057"
     inkscape:window-x="-8"
     inkscape:window-y="-8"
     inkscape:window-maximized="1"
     inkscape:current-layer="g1" /><g
     inkscape:groupmode="layer"
     inkscape:label="Image"
     id="g1"><path
       style="fill:#000000"
       d="M 122.89743,234.76923 119,230.87179 v -43.37316 c 0,-27.99668 0.50632,-44.48442 1.42822,-46.50775 2.85844,-6.2736 3.98949,-6.41711 52.16161,-6.61813 l 45.45914,-0.1897 3.80885,4.26284 3.80885,4.26285 v 44.08153 44.08152 l -3.89744,3.89744 -3.89743,3.89744 H 172.33333 126.79487 Z M 217.4,230.4 c 1.17721,-1.17721 1.6,-12.77884 1.6,-43.90476 0,-36.6811 -0.27852,-42.58329 -2.09524,-44.4 C 215.0887,140.27918 209.21425,140 172.81711,140 c -26.39665,0 -42.95025,0.51262 -44.57143,1.38025 -2.46799,1.32082 -2.57901,3.23223 -2.57901,44.4 0,31.68203 0.42167,43.44143 1.6,44.61975 2.29008,2.29009 87.84324,2.29009 90.13333,0 z m -57.51111,-8.62222 c -1.7981,-1.7981 -0.92664,-11.18032 1.11111,-11.96228 1.55512,-0.59675 2,-3.22502 2,-11.8155 0,-8.59048 -0.44488,-11.21875 -2,-11.8155 -2.82041,-1.0823 -2.73103,-10.95201 0.10905,-12.04185 3.72504,-1.42943 17.30385,-0.86309 18.95762,0.79068 1.06365,1.06366 1.6,6.87408 1.6,17.33334 0,13.95555 0.30132,16.03465 2.66666,18.4 2.98327,2.98326 3.49491,7.97176 1.06667,10.4 -1.69988,1.69988 -23.90343,2.31879 -25.51111,0.71111 z M 178,214.62512 c -2.88738,-1.16059 -3,-1.83316 -3,-17.91549 V 180 l -5,0.0405 c -4.04363,0.0328 -4.55369,0.3005 -2.66667,1.39959 2.00631,1.16857 2.33334,3.48951 2.33334,16.55987 0,13.07036 -0.32703,15.3913 -2.33334,16.55987 -1.76654,1.02892 -0.39005,1.34836 5.66667,1.31507 6.12178,-0.0337 7.29567,-0.32708 5,-1.24982 z m -12.40784,-46.41734 c -4.39474,-3.55865 -4.1145,-10.36932 0.5933,-14.4188 4.47315,-3.84764 7.42046,-3.93602 11.96806,-0.35887 2.57445,2.02506 3.51315,3.98449 3.51315,7.33333 0,8.6805 -9.25486,12.96655 -16.07451,7.44434 z M 175,160.66667 c 0,-2.41066 -0.71636,-3.33334 -2.58798,-3.33334 -1.42339,0 -2.97655,0.62874 -3.45148,1.39719 C 167.53224,161.04156 169.40233,164 172.29149,164 174.29168,164 175,163.12828 175,160.66667 Z M 68.939391,214.06061 c -6.343142,-6.34315 -2.44477,-15.39394 6.630499,-15.39394 9.027481,0 12.808473,10.48099 5.892207,16.33333 -3.860398,3.26655 -8.678166,2.90515 -12.522706,-0.93939 z m 9.473016,-4.85523 c 0.496717,-0.8037 0.08213,-2.282 -0.921311,-3.28511 -2.313018,-2.31226 -5.863932,-0.35035 -4.727235,2.61183 0.937073,2.44197 4.30717,2.84368 5.648546,0.67328 z M 265.89909,202.2474 c -3.71126,-3.95045 -3.70322,-9.39436 0.019,-12.86213 6.07351,-5.65833 15.74859,-1.5946 15.74859,6.61473 0,8.43125 -9.9954,12.3916 -15.76758,6.2474 z M 275,196 c 0,-1.77778 -0.88889,-2.66667 -2.66666,-2.66667 -1.77778,0 -2.66667,0.88889 -2.66667,2.66667 0,1.77778 0.88889,2.66667 2.66667,2.66667 C 274.11111,198.66667 275,197.77778 275,196 Z M 63.046908,194.75432 c -2.763187,-5.16306 -1.597039,-14.99885 2.757822,-23.26063 3.444164,-6.53407 3.892543,-8.36596 2.692392,-11 -1.572508,-3.45128 -6.505622,-4.28519 -9.230459,-1.56036 -0.88,0.88 -1.6,3.55889 -1.6,5.95309 0,4.96029 -2.11987,6.56821 -10.406411,7.89328 l -5.407063,0.86463 -1.553561,-5.76949 c -3.92947,-14.59293 7.770257,-27.77133 24.721171,-27.84556 8.906788,-0.039 15.165693,3.44921 19.235609,10.72038 4.741306,8.47065 4.422187,16.40101 -1,24.85076 -3.174565,4.94713 -4.256411,8.15946 -4.256411,12.63859 0,5.81659 -0.162196,6.05415 -5.154693,7.54994 -7.150229,2.14226 -9.203461,1.94553 -10.798396,-1.03463 z m 9.286422,-8.83174 c 0,-1.719 2.177992,-7.29501 4.839981,-12.39115 5.535806,-10.59779 5.484659,-15.89749 -0.218845,-22.67572 -8.948768,-10.635 -29.001967,-3.849 -30.921732,10.46391 -0.665138,4.95898 -0.46353,5.56135 1.720574,5.14073 1.593965,-0.30697 2.810578,-2.12216 3.420221,-5.10298 2.180537,-10.66164 16.466099,-14.39212 22.112632,-5.77442 3.417931,5.21642 2.915314,12.1777 -1.328027,18.39323 -4.173701,6.11352 -5.316705,17.25604 -1.624804,15.83932 1.1,-0.42211 2,-2.17392 2,-3.89292 z m 203.00001,-1.58309 c -4.77087,-2.37438 -5.39486,-5.09837 -2.46002,-10.73904 2.76733,-5.31873 7.30783,-9.07485 14.79335,-12.23779 9.59426,-4.05396 12.23771,-8.26781 7.90476,-12.60076 -3.13007,-3.13007 -5.72755,-2.56695 -10.18882,2.20885 l -4.02061,4.30408 -6.181,-3.49153 c -4.77123,-2.69519 -6.10288,-4.16504 -5.83852,-6.44444 0.9124,-7.86669 11.76515,-16.00553 21.34261,-16.00553 2.83114,0 8.20281,1.53391 12.00249,3.42737 11.45198,5.70676 16.03767,16.59148 11.73566,27.85612 -2.52611,6.61452 -9.57556,13.5567 -15.11436,14.88437 -6.25467,1.49926 -11.03233,4.49796 -12.5807,7.89628 -1.73362,3.80488 -5.08567,4.08199 -11.39484,0.94202 z m 17.37706,-13.10578 c 8.44769,-2.77477 11.25815,-4.61834 14.47267,-9.49362 C 314.67054,150.38426 304.96733,136 289.81953,136 c -6.50217,0 -15.36613,6.59066 -12.61635,9.38069 1.16978,1.1869 2.75528,0.73083 6.64285,-1.91085 2.80848,-1.90841 6.52705,-3.46984 8.26349,-3.46984 3.65825,0 12.22382,7.94052 12.22382,11.33183 0,5.44839 -4.31121,11.24597 -10.45729,14.06264 -3.41516,1.56513 -7.61057,3.52043 -9.32313,4.34512 -3.96509,1.90941 -7.60033,8.43569 -5.19978,9.33506 0.90577,0.33935 2.71654,-0.77194 4.02393,-2.46953 1.30739,-1.69759 5.50739,-4.11473 9.33333,-5.37141 z m -57.61362,-29.41352 c -1.5199,-1.93223 -2.76345,-4.55132 -2.76345,-5.82019 0,-4.08926 5.21546,-9.33333 9.2824,-9.33333 8.25966,0 12.9521,8.79968 8.02953,15.05771 -3.89747,4.95482 -10.69119,4.99957 -14.54848,0.0958 z m 10.23694,-5.48616 c 0.72902,-2.1895 -3.44863,-3.75245 -5.2405,-1.96058 -0.76681,0.76681 -0.97054,2.0797 -0.45273,2.91753 1.17807,1.90616 4.9511,1.27197 5.69323,-0.95695 z M 93.666664,140 c -3.603645,-3.60365 -3.357949,-8.76326 0.606061,-12.72727 8.403325,-8.40333 21.362435,2.47499 14.039195,11.78498 -3.53795,4.49778 -10.633248,4.9543 -14.645256,0.94229 z m 9.284856,-4.60826 c 1.83228,-2.20775 0.79259,-4.72507 -1.95152,-4.72507 -2.399352,0 -3.764953,2.28538 -2.826666,4.73051 0.947125,2.46817 2.726956,2.46614 4.778186,-0.005 z M 88.716761,122.44827 c -0.80696,-0.97988 -1.896414,-4.66452 -2.421008,-8.18808 -0.83882,-5.63413 -0.432388,-7.43375 3.371273,-14.92757 4.748375,-9.355051 4.720766,-14.484349 -0.08473,-15.741014 -4.008773,-1.048318 -7.915635,3.399862 -7.915635,9.012389 0,4.184426 -0.455657,4.730537 -5,5.992564 -2.75,0.763713 -6.064851,1.391915 -7.366335,1.396005 -5.715242,0.01796 -6.445039,-16.299367 -1.066804,-23.8524 5.472962,-7.686067 17.723459,-11.889566 27.280353,-9.360678 15.323912,4.054923 21.345202,21.757358 12.134612,35.675484 -2.95652,4.46761 -3.73494,7.06192 -3.49716,11.65535 0.27768,5.3644 -0.0376,6.03946 -3.42274,7.32949 -6.646531,2.53286 -10.490662,2.85559 -12.011829,1.00846 z m 8.955612,-11.59092 c 0.0037,-3.16079 1.398826,-6.95301 3.994287,-10.85735 10.08013,-15.163465 -0.81744,-31.772475 -17.556184,-26.757426 -8.262051,2.475371 -13.110479,7.931087 -13.110479,14.752627 0,4.533964 0.41787,5.453189 2.313049,5.088211 1.533906,-0.295403 2.599757,-2.20932 3.164203,-5.681867 2.309145,-14.206159 21.063165,-13.429041 23.399747,0.969624 0.612114,3.771999 -0.08709,6.254034 -3.386135,12.020161 -4.090765,7.14991 -4.915577,10.74846 -3.380518,14.74876 1.42789,3.72103 4.556075,0.78435 4.56203,-4.28274 z m 136.883187,12.25376 c -1.45366,-1.45366 -1.00965,-12.38832 0.6307,-15.5321 0.83577,-1.60179 4.13577,-5.73664 7.33333,-9.188555 3.19756,-3.451917 5.81375,-7.381917 5.81375,-8.733334 0,-3.290074 -2.55379,-5.657121 -6.10341,-5.657121 -3.29641,0 -5.12038,1.84805 -6.57978,6.666667 -1.33413,4.404963 -2.91184,5.288523 -9.48689,5.312916 -7.10474,0.02636 -8.81631,-2.084791 -7.69966,-9.497232 1.24385,-8.256864 5.08129,-13.862788 11.67431,-17.054415 15.02614,-7.27403 31.9821,-0.212051 35.5888,14.82236 2.07343,8.643009 -0.51881,15.694262 -8.73352,23.756384 C 253.47337,111.46112 251,115.10464 251,116.83523 251,122.94862 249.73991,124 242.41291,124 c -3.83266,0 -7.36846,-0.4 -7.85735,-0.88889 z m 10.38529,-9.44444 c 0.49313,-2.01667 3.87785,-6.70546 7.5216,-10.41954 7.66103,-7.808897 9.27084,-13.315543 6.10658,-20.888685 -5.16122,-12.352544 -27.22105,-12.565847 -32.34073,-0.312713 -2.52583,6.045146 -2.39426,7.287601 0.7717,7.287601 1.5393,0 2.66667,-0.888889 2.66667,-2.102564 0,-1.15641 1.75384,-3.85641 3.89743,-6 8.25084,-8.250837 20.10257,-3.249882 20.10257,8.482478 0,5.131645 -0.78892,6.692585 -6.54923,12.958233 -6.95292,7.56288 -9.55025,14.66185 -5.36439,14.66185 1.39324,0 2.64259,-1.43702 3.1878,-3.66666 z m -83.17741,-7.84648 c -3.62902,-4.61355 -3.48889,-7.882621 0.50929,-11.880796 6.18663,-6.186629 15.83838,-2.493355 15.83838,6.060606 0,8.7536 -10.96852,12.65868 -16.34767,5.82019 z m 10.23695,-5.48616 c 0.72901,-2.189497 -3.44864,-3.752449 -5.2405,-1.960583 -0.76681,0.76681 -0.97054,2.079703 -0.45273,2.917533 1.17807,1.90616 4.95109,1.27197 5.69323,-0.95695 z M 161.22222,87.111111 c -1.33039,-1.33039 -1.0711,-10.458251 0.40756,-14.347413 0.71304,-1.875446 3.75636,-6.078599 6.76292,-9.34034 5.92154,-6.424107 6.75906,-11.807087 2.27397,-14.615389 -3.24434,-2.03141 -6.4426,0.243156 -8.36338,5.947926 -1.5233,4.524251 -1.63278,4.577438 -9.42225,4.577438 -7.30158,0 -7.91426,-0.234986 -8.33279,-3.195965 -1.39482,-9.867922 6.50288,-21.211927 16.74864,-24.057197 6.81844,-1.893496 9.49017,-1.77851 16.83641,0.724604 8.74191,2.978669 13.21234,9.109472 13.93584,19.111804 0.65449,9.048206 -1.08356,13.061438 -8.95924,20.687351 -2.99378,2.898829 -5.44323,6.388274 -5.44323,7.754322 0,5.582398 -2.46797,7.641748 -9.15803,7.641748 -3.51864,0 -6.79753,-0.4 -7.28642,-0.888889 z m 10.57247,-9.708942 c 1.15854,-2.895473 4.10012,-6.785151 6.53684,-8.643727 2.46126,-1.877297 5.40116,-5.921153 6.61455,-9.098356 1.87469,-4.908805 1.93878,-6.463697 0.45237,-10.974197 -4.58172,-13.903156 -25.53444,-15.292758 -32.33372,-2.144399 -2.67917,5.180946 -2.60574,6.791843 0.30962,6.791843 1.41682,0 2.98679,-1.622532 3.89298,-4.023321 2.97098,-7.871019 15.17796,-9.645079 20.42934,-2.969029 4.95741,6.30232 3.29358,13.167823 -5.41053,22.325684 -4.32937,4.555063 -6.06666,8.711478 -5.43373,13 0.40156,2.720802 3.06785,0.420163 4.94228,-4.264498 z"
       id="path1" /></g></svg>
