<?xml version="1.0" encoding="UTF-8" standalone="no"?>
<!-- Created with Inkscape (http://www.inkscape.org/) -->

<svg
   version="1.1"
   id="svg1"
   width="353.33334"
   height="320"
   viewBox="0 0 353.33334 320"
   sodipodi:docname="Sichtbarkeitf.svg"
   inkscape:version="1.4.3 (0d15f75, 2025-12-25)"
   xml:space="preserve"
   xmlns:inkscape="http://www.inkscape.org/namespaces/inkscape"
   xmlns:sodipodi="http://sodipodi.sourceforge.net/DTD/sodipodi-0.dtd"
   xmlns="http://www.w3.org/2000/svg"
   xmlns:svg="http://www.w3.org/2000/svg"><defs
     id="defs1" /><sodipodi:namedview
     id="namedview1"
     pagecolor="#505050"
     bordercolor="#eeeeee"
     borderopacity="1"
     inkscape:showpageshadow="0"
     inkscape:pageopacity="0"
     inkscape:pagecheckerboard="0"
     inkscape:deskcolor="#505050"
     inkscape:zoom="2.671875"
     inkscape:cx="176.84211"
     inkscape:cy="160"
     inkscape:window-width="1920"
     inkscape:window-height="1057"
     inkscape:window-x="-8"
     inkscape:window-y="-8"
     inkscape:window-maximized="1"
     inkscape:current-layer="g1" /><g
     inkscape:groupmode="layer"
     inkscape:label="Image"
     id="g1"><path
       style="fill:#000000"
       d="M 41.315146,299.66667 C 40.964895,298.75 46.750702,289 54.172495,278 l 13.494169,-20 29.666667,-0.35884 C 126.76967,257.2851 127,257.30423 127,260.10469 c 0,2.81612 -9.88809,37.55686 -11.3739,39.96094 -1.26738,2.05067 -73.523191,1.66275 -74.310954,-0.39896 z m 73.146524,-17.09249 c 2.27059,-7.01753 4.53764,-14.38991 5.03789,-16.38306 l 0.90954,-3.62391 -25.037885,0.83643 c -13.770837,0.46003 -25.100751,0.93241 -25.177588,1.04972 -0.07684,0.11732 -4.426836,6.64331 -9.666667,14.50219 -5.23983,7.85889 -9.526964,14.92037 -9.526964,15.69218 0,0.95087 9.564529,1.2876 29.666668,1.04445 l 29.666666,-0.35885 z M 124.39918,299 c 0.0362,-1.28333 2.58622,-11.03333 5.66667,-21.66667 L 135.66667,258 h 39.86299 39.863 l 5.80502,20.45848 c 3.19276,11.25216 5.469,21.00216 5.05831,21.66666 -0.42501,0.68768 -22.54084,1.20819 -51.33468,1.20819 -47.31522,0 -50.58372,-0.15095 -50.52213,-2.33333 z M 219,295.01902 c 0,-0.46691 -1.16279,-5.0872 -2.58399,-10.2673 -1.42119,-5.18011 -3.24432,-11.96839 -4.05139,-15.08505 L 210.89722,264 h -35.22549 -35.22548 l -2.62404,9 c -3.94852,13.54271 -5.47321,19.48483 -5.48144,21.36265 -0.006,1.33974 9.09495,1.67596 43.3259,1.60064 C 199.5,295.91084 219,295.48592 219,295.01902 Z m 16.36682,4.64765 c -2.26274,-2.91657 -12.4282,-40.13863 -11.27651,-41.29031 0.60775,-0.60775 12.16106,-0.94106 25.67401,-0.74068 L 274.33334,258 l 12.89964,19.33333 c 7.0948,10.63334 12.9448,20.38334 13,21.66667 0.0929,2.15988 -2.26634,2.33333 -31.73638,2.33333 -23.89089,0 -32.15946,-0.41597 -33.12978,-1.66666 z m 55.57655,-4.58731 c -0.0312,-0.59365 -4.68116,-7.96851 -10.33334,-16.38859 l -10.27669,-15.30922 -19.66654,-0.0241 c -10.81659,-0.0133 -19.66659,0.34787 -19.66666,0.8025 -1.2e-4,0.70143 7.19496,25.814 8.55754,29.86791 0.54898,1.63332 51.47089,2.67533 51.38569,1.05151 z M 74.999997,247.86986 c 0,-1.53825 5.142272,-10.25812 11.427271,-19.37749 l 11.42727,-16.58068 14.239402,0.37749 14.23939,0.37749 L 125.98191,216 c -0.40848,3.8745 -10.59883,30.53729 -12.61239,33 -0.97118,1.1878 -6.67905,1.66667 -19.866115,1.66667 -17.901525,0 -18.503408,-0.091 -18.503408,-2.79681 z m 35.719463,-7.53653 c 0.72252,-2.01666 2.85432,-7.71666 4.73735,-12.66666 l 3.42368,-9 h -9.23919 -9.23919 l -8.034388,11.94885 c -4.418915,6.57187 -8.034391,12.27187 -8.034391,12.66667 0,0.39479 5.641305,0.71781 12.536233,0.71781 12.468536,0 12.543326,-0.0198 13.849896,-3.66667 z m 10.18657,8.56926 c -0.7025,-1.8307 9.45099,-32.35035 11.70061,-35.17001 0.70242,-0.88041 4.18627,-1.78041 7.74188,-2 l 6.46473,-0.39925 -13.91424,-20.66666 c -22.03998,-32.73571 -36.565679,-64.83918 -36.565679,-80.81433 0,-15.484162 7.537859,-31.911105 20.066419,-43.729911 9.55745,-9.016021 17.78732,-13.063362 31.93358,-15.704525 20.60073,-3.846236 45.67285,6.12248 58.1508,23.120853 8.83271,12.032566 15.34846,35.783883 10.84255,39.523453 -2.93275,2.43397 -4.49273,-0.30791 -5.39131,-9.47598 -0.96559,-9.851835 -7.04725,-22.930779 -14.34332,-30.846082 -3.51074,-3.8087 -9.43516,-7.991925 -15.71149,-11.093855 -9.72039,-4.804077 -10.57402,-4.979626 -24.21389,-4.979626 -13.63988,0 -14.49351,0.175549 -24.2139,4.979626 -12.10993,5.985053 -19.73073,13.753366 -25.42089,25.91296 -13.14749,28.095547 -0.27458,60.076317 54.00478,134.166607 l 6.63686,9.0592 3.45458,-5.0592 c 1.90002,-2.78255 8.75334,-13.45919 15.2296,-23.72586 6.47627,-10.26667 12.34517,-18.60667 13.042,-18.53333 3.40906,0.35876 3.92833,0.65466 3.86072,2.2 -0.0401,0.91666 -3.56466,7.06666 -7.83235,13.66666 l -7.75942,12 7.05489,0.39657 c 3.8802,0.21811 7.62112,1.11811 8.31316,2 2.00133,2.55033 9.96856,33.9769 9.00787,35.53133 -0.58121,0.9404 -15.85637,1.40544 -46.16511,1.40544 -36.34113,0 -45.43032,-0.34877 -45.97343,-1.76408 z m 82.30832,-17.62714 -3.32302,-12.72456 -8.03732,0.39122 -8.03733,0.39122 -6.74167,9.91906 c -3.70792,5.45548 -7.38487,10.11988 -8.17099,10.36533 -0.78613,0.24545 -4.89571,-4.36813 -9.13241,-10.25239 l -7.7031,-10.69866 h -7.75809 -7.7581 l -3.63837,11 c -2.0011,6.05 -3.91457,11.75 -4.25214,12.66666 C 128.17957,243.64282 136.4585,244 167.2927,244 h 39.24467 z M 220.62244,249 c -2.07384,-2.52155 -11.12032,-33.31469 -10.3653,-35.28224 0.489,-1.27432 4.94922,-1.71776 17.27757,-1.71776 h 16.6184 l 11.60225,17.23912 c 7.32435,10.88285 11.30594,18.01129 10.79863,19.33334 -0.68523,1.78565 -4.02714,2.09421 -22.68222,2.09421 -15.88291,0 -22.25423,-0.45674 -23.24933,-1.66667 z m 34.99309,-8.66667 c -1.29681,-2.01666 -5.11582,-7.71364 -8.48668,-12.65995 L 241,218.68009 l -12.26152,-0.007 -12.26152,-0.007 2.61701,7.60644 c 1.43935,4.18355 3.23016,9.88355 3.97957,12.66667 L 224.43612,244 h 16.76862 16.76862 z m -49.85454,-61.60837 c -1.89153,-1.16903 -1.0818,-5.39163 1.0339,-5.39163 0.66656,0 1.89279,0.8204 2.72496,1.8231 1.95584,2.35664 -1.07068,5.22992 -3.75886,3.56853 z m 4.84148,-11.56694 c -1.29327,-1.29326 1.5845,-5.82469 3.69909,-5.82469 2.48109,0 3.56564,1.92598 2.56012,4.54635 -0.80822,2.10617 -4.64731,2.89024 -6.25921,1.27834 z m -62.26914,-12.96863 c -9.79548,-2.2241 -15.18139,-5.24252 -22.59275,-12.66163 C 116.14045,131.9176 113,124.31057 113,110.66667 113,97.055581 116.74906,87.584275 125.66667,78.666667 134.58427,69.749059 144.05558,66 157.66667,66 c 9.42235,0 12.58011,0.584786 18.7275,3.468151 10.19942,4.783913 16.0677,10.318174 21.36782,20.151558 4.16851,7.733873 4.51902,9.305917 4.54413,20.380291 0.0232,10.2127 -0.49166,13.09224 -3.45652,19.33333 -4.54632,9.57009 -11.93613,16.81086 -21.8496,21.40893 -9.78756,4.53967 -18.98427,5.64556 -28.66667,3.44713 z m 27.76207,-9.73691 c 8.34232,-4.26642 16.24562,-13.4367 18.73174,-21.73465 2.31957,-7.74203 1.82163,-21.22773 -1.01435,-27.471664 C 187.55311,81.464359 175.80915,73.241469 161.03111,72.293071 148.75818,71.505443 140.0504,74.232225 131.8845,81.42014 123.19945,89.065029 119,98.262069 119,109.63795 c 0,30.13878 30.21408,48.56214 57.0954,34.81453 z m -37.15394,-15.85635 c -1.46641,-1.76691 -0.57438,-3.22661 6.0832,-9.95439 l 7.8016,-7.88386 -7.7676,-8.14352 c -7.20514,-7.553832 -7.60897,-8.302149 -5.57684,-10.334274 2.03212,-2.032124 2.76983,-1.617727 10.1878,5.722839 l 7.99705,7.913595 7.99704,-7.913595 c 7.3679,-7.291016 8.16678,-7.743866 10.15451,-5.756132 1.98774,1.987734 1.56838,2.765666 -5.33038,9.888237 -4.11831,4.25193 -7.48784,8.04357 -7.48784,8.42588 0,0.3823 3.37224,4.1029 7.49387,8.26799 7.18705,7.26283 8.25768,10.50443 3.46937,10.50443 -1.217,0 -5.36192,-3.11008 -9.21095,-6.9113 l -6.99824,-6.9113 -7.94471,7.57797 c -4.36959,4.16788 -8.21578,7.57797 -8.5471,7.57797 -0.33131,0 -1.37566,-0.93174 -2.32078,-2.07054 z"
       id="path1" /></g></svg>
