<?xml version="1.0" encoding="UTF-8" standalone="no"?>
<!-- Created with Inkscape (http://www.inkscape.org/) -->

<svg
   version="1.1"
   id="svg1"
   width="401.33334"
   height="320"
   viewBox="0 0 401.33334 320"
   sodipodi:docname="Anfragen.svg"
   inkscape:version="1.4.3 (0d15f75, 2025-12-25)"
   xmlns:inkscape="http://www.inkscape.org/namespaces/inkscape"
   xmlns:sodipodi="http://sodipodi.sourceforge.net/DTD/sodipodi-0.dtd"
   xmlns="http://www.w3.org/2000/svg"
   xmlns:svg="http://www.w3.org/2000/svg">
  <defs
     id="defs1" />
  <sodipodi:namedview
     id="namedview1"
     pagecolor="#505050"
     bordercolor="#eeeeee"
     borderopacity="1"
     inkscape:showpageshadow="0"
     inkscape:pageopacity="0"
     inkscape:pagecheckerboard="0"
     inkscape:deskcolor="#505050"
     inkscape:zoom="2.671875"
     inkscape:cx="200.60819"
     inkscape:cy="160"
     inkscape:window-width="1920"
     inkscape:window-height="1057"
     inkscape:window-x="-8"
     inkscape:window-y="-8"
     inkscape:window-maximized="1"
     inkscape:current-layer="g1" />
  <g
     inkscape:groupmode="layer"
     inkscape:label="Image"
     id="g1">
    <path
       style="fill:#000000"
       d="M 41.946738,270.33333 C 41.596808,269.41667 41.465639,223.36667 41.655251,168 41.996563,68.337139 42.026592,67.333333 44.666668,67.333333 c 2.639841,0 2.670105,1.002832 3.008494,99.690157 l 0.341828,99.69017 133.5423,-0.0727 c 82.64533,-0.045 134.02495,0.40995 134.80867,1.19367 0.6965,0.6965 0.86323,1.91864 0.37052,2.71587 -1.38968,2.24855 -273.932697,2.03317 -274.791742,-0.21716 z m 12.71993,-23.36401 c 0,-1.3002 3.586144,-8.81272 7.96921,-16.69448 25.907529,-46.5877 42.596292,-58.42865 65.444532,-46.43396 14.59132,7.66003 22.56394,5.48964 38.33141,-10.43498 8.23493,-8.31701 36.33968,-42.42189 37.31564,-45.28222 0.21677,-0.6353 -3.68323,-0.38521 -8.66666,0.55576 -9.9418,1.8772 -11.0608,1.6778 -11.0608,-1.97099 0,-2.02122 1.74839,-2.76847 9.66667,-4.13148 5.31667,-0.91518 12.06667,-1.71939 15,-1.78713 l 5.33334,-0.12317 L 214.37438,137 c 0.35626,15.54341 0.24602,16.33333 -2.27941,16.33333 -2.39563,0 -2.69146,-1.03583 -3.04104,-10.64836 l -0.38726,-10.64836 -12,15.6284 c -6.6,8.59561 -17.7,21.3788 -24.66667,28.40707 -19.63777,19.81142 -27.93872,22.39615 -44.74311,13.93203 -14.3548,-7.2303 -20.13627,-6.33419 -32.203607,4.99145 -8.565329,8.03888 -20.684993,25.74603 -29.20624,42.67111 -4.425671,8.79035 -6.527946,11.66666 -8.527089,11.66666 -1.651167,0 -2.653286,-0.89286 -2.653286,-2.36401 z M 282.30462,215.60617 c -10.48179,-3.34788 -19.53246,-14.3975 -19.60866,-23.9395 L 262.66667,188 l -14.33333,-0.0204 c -7.88333,-0.0112 -14.99351,-0.46123 -15.8004,-1 -4.01559,-2.68128 -4.53293,-7.39046 -4.53293,-41.26192 0,-29.0289 0.327,-34.92451 2.0756,-37.42099 2.05472,-2.93351 2.42584,-2.96334 36.87332,-2.96334 34.33591,0 34.76669,-0.0343 32.46045,-2.58265 -1.2855,-1.42045 -1.97245,-3.172941 -1.52655,-3.894415 1.24124,-2.008376 48.60779,-20.455783 50.12141,-19.520317 1.91859,1.185754 1.6649,5.749538 -1.36653,24.583252 -2.06165,12.8087 -2.76721,24.22052 -3,48.52257 C 343.27702,190.09618 344.24964,188 327.13892,188 h -11.01808 l -0.90735,5 c -1.11466,6.14235 -4.76205,13.60102 -8.0716,16.50588 -6.94875,6.09907 -17.06327,8.5833 -24.83727,6.10029 z m 17.49757,-8.59091 c 9.13764,-6.82223 11.85112,-17.3809 7.02748,-27.34522 -7.15679,-14.78396 -26.93902,-15.45015 -35.29091,-1.18846 -3.461,5.91001 -3.18713,16.28189 0.59136,22.39562 5.64973,9.14145 19.5266,12.21954 27.67207,6.13806 z M 280.074,195.21389 c -3.42646,-3.90251 -3.90242,-5.14738 -2.57814,-6.74304 1.39984,-1.68671 2.08019,-1.50087 4.92681,1.34575 l 3.30269,3.3027 6.677,-7.3057 c 6.01016,-6.57607 6.88191,-7.10077 8.72889,-5.25379 1.84697,1.84697 1.72935,2.42083 -1.17778,5.74604 C 291.66812,195.78277 287.33023,200 285.86753,200 c -0.8752,0 -3.48229,-2.15375 -5.79353,-4.78611 z m -14.74662,-17.86616 c 2.36976,-5.72112 10.94283,-12.95867 17.41389,-14.70115 11.24498,-3.02796 23.82842,2.70911 29.24962,13.33555 l 2.72998,5.3512 h 11.30624 11.30623 v -26.01879 -26.0188 l -4.33333,-3.89485 -4.33334,-3.89485 -4,3.796 c -9.88795,9.38369 -36.27458,29.30266 -38.85614,29.33208 -1.70469,0.0194 -11.31055,-6.82093 -23.82724,-16.96745 -11.53411,-9.35 -22.39885,-18.10005 -24.14386,-19.44455 l -3.17276,-2.44454 v 32.77788 32.77787 h 14.50491 14.50491 z m 35.31057,-40.24345 c 13.59803,-10.80553 13.71814,-10.95145 14.50887,-17.62793 0.43853,-3.70272 0.32037,-7.20917 -0.26259,-7.79213 -0.58295,-0.58295 -17.92282,-0.90038 -38.53302,-0.7054 l -37.47311,0.35451 22.76321,18.33334 C 274.16108,139.75 284.97195,148 285.66547,148 c 0.69352,0 7.43114,-4.90307 14.97248,-10.89572 z m 39.97499,-32.86889 c 1.26627,-9.037195 2.09638,-16.61765 1.84469,-16.845451 -0.25169,-0.227801 -8.18564,2.615941 -17.631,6.319427 l -17.17339,6.733614 6.37393,3.23932 6.37392,3.23932 8.00264,-8.127479 c 7.35312,-7.467825 11.59628,-9.991282 11.59628,-6.896441 0,1.321127 -3.84584,6.242124 -12.95742,16.57984 -6.31024,7.1594 -8.17862,12.97382 -2.43511,7.57807 l 3.27415,-3.0759 5.05919,4.06182 c 2.78255,2.234 5.12908,3.96356 5.21451,3.84348 0.0854,-0.12009 1.19135,-7.61242 2.45761,-16.64962 z"
       id="path1" />
  </g>
</svg>
