<?xml version="1.0" encoding="UTF-8" standalone="no"?>
<!-- Created with Inkscape (http://www.inkscape.org/) -->

<svg
   version="1.1"
   id="svg1"
   width="401.33334"
   height="320"
   viewBox="0 0 401.33334 320"
   sodipodi:docname="Lokale SEO.svg"
   inkscape:version="1.4.3 (0d15f75, 2025-12-25)"
   xmlns:inkscape="http://www.inkscape.org/namespaces/inkscape"
   xmlns:sodipodi="http://sodipodi.sourceforge.net/DTD/sodipodi-0.dtd"
   xmlns="http://www.w3.org/2000/svg"
   xmlns:svg="http://www.w3.org/2000/svg">
  <defs
     id="defs1" />
  <sodipodi:namedview
     id="namedview1"
     pagecolor="#505050"
     bordercolor="#eeeeee"
     borderopacity="1"
     inkscape:showpageshadow="0"
     inkscape:pageopacity="0"
     inkscape:pagecheckerboard="0"
     inkscape:deskcolor="#505050"
     inkscape:zoom="2.671875"
     inkscape:cx="200.60819"
     inkscape:cy="160"
     inkscape:window-width="1920"
     inkscape:window-height="1057"
     inkscape:window-x="-8"
     inkscape:window-y="-8"
     inkscape:window-maximized="1"
     inkscape:current-layer="g1" />
  <g
     inkscape:groupmode="layer"
     inkscape:label="Image"
     id="g1">
    <path
       style="fill:#000000;stroke-width:1.00152"
       d="m 83.300438,301.27786 c -0.786193,-1.27203 10.869207,-19.25987 40.415392,-62.37331 l 11.21021,-16.3578 h 23.29055 23.29057 l -9.46121,-12.80971 c -22.8807,-30.97863 -38.57118,-57.27432 -42.15551,-70.64847 -2.29652,-8.56894 -2.29719,-26.14577 -0.001,-34.71859 7.20829,-26.915885 30.52475,-48.005448 56.70929,-51.293121 30.79208,-3.866189 58.58601,12.029007 72.2117,41.297476 8.87155,19.056385 10.26863,33.899325 4.74068,50.365955 -4.3072,12.83027 -19.09088,41.93583 -31.27254,61.56824 -5.1675,8.32814 -9.39545,15.37572 -9.39545,15.66131 0,0.28558 11.54549,0.68244 25.65665,0.88191 l 25.65665,0.36266 25.81358,38.42555 c 14.19747,21.13405 25.45186,39.01079 25.00977,39.72609 -1.1494,1.85966 -240.569111,1.77231 -241.719021,-0.0882 z m 78.105072,-20.97806 5.02,-16.3578 H 140.1064 113.78729 l -8.65147,13.01947 c -4.75832,7.16071 -9.733631,14.68281 -11.056266,16.71577 l -2.404791,3.69628 32.355377,-0.35796 32.35538,-0.35795 z m 93.52691,16.24254 c 0,-0.43061 -1.30068,-5.25915 -2.89042,-10.7301 -2.1991,-7.56804 -2.5185,-10.31908 -1.3354,-11.50211 2.46637,-2.46624 4.25807,0.34413 7.59332,11.91055 l 3.00956,10.43693 27.67426,0.36137 27.67428,0.36138 -2.49305,-3.69971 c -1.37117,-2.03483 -6.38065,-9.55847 -11.13219,-16.71918 L 294.39364,263.942 h -61.12803 c -33.62042,0 -61.12803,0.15149 -61.12803,0.33664 0,0.42352 -7.42634,26.42592 -8.63353,30.22926 l -0.89425,2.81736 h 46.16131 c 25.38872,0 46.16131,-0.35231 46.16131,-0.78292 z M 154.56119,243.57821 c 3.0726,-7.52793 5.58008,-14.19132 5.57217,-14.80753 -0.008,-0.61621 -4.97206,-0.91548 -11.03144,-0.66504 l -11.01705,0.45533 -9.74314,14.35218 -9.74313,14.35219 h 15.18802 15.18801 z m 108.16107,12.61577 c -0.24482,-0.58925 -2.84885,-6.8903 -5.78674,-14.00231 l -5.3416,-12.93097 -16.74928,-0.0186 -16.74927,-0.0186 -6.90545,10.6826 c -3.79799,5.87546 -7.49669,10.68265 -8.21932,10.68265 -0.72263,0 -4.75579,-4.80719 -8.96258,-10.68265 l -7.64871,-10.68265 h -9.52681 -9.5268 l -6.11687,14.02097 -6.11687,14.02097 h 54.04772 c 29.72624,0 53.84741,-0.48211 53.60258,-1.07136 z m 17.65196,-12.84651 c -5.1361,-7.65483 -9.80676,-14.18862 -10.37923,-14.51954 -0.57247,-0.33093 -3.52068,-0.22709 -6.55157,0.23073 l -5.5107,0.83241 6.03486,13.68714 6.03486,13.68713 h 9.85507 9.85506 z M 219.47028,215.5016 c 18.1355,-29.18642 32.66119,-56.39662 37.50109,-70.24876 10.49003,-30.02318 -4.94002,-65.583775 -34.92727,-80.494543 -9.36737,-4.657805 -12.40963,-5.494151 -22.20909,-6.105486 -9.19597,-0.573686 -13.12941,-0.169404 -20.688,2.126329 -23.30078,7.077022 -40.09383,26.318942 -44.50364,50.99341 -3.60054,20.1463 2.52336,36.73677 26.47084,71.71302 17.56591,25.65575 40.739,57.76383 41.65859,57.72115 0.41068,-0.019 7.92455,-11.58636 16.69748,-25.70512 z m 8.06855,-50.75523 c -1.47877,-0.89201 -6.16819,-5.31533 -10.42094,-9.8296 l -7.73226,-8.20776 -4.22023,2.10521 c -5.83186,2.90916 -19.08219,2.81504 -25.21526,-0.17911 -6.23104,-3.04197 -13.64376,-10.45156 -16.69806,-16.691 -3.44114,-7.02969 -3.2082,-20.64902 0.47163,-27.57413 6.27754,-11.813813 16.43209,-18.026965 29.46262,-18.026965 20.82315,0 36.30088,22.381615 29.31833,42.395825 l -1.97962,5.67424 4.18353,3.7431 c 9.05523,8.10188 15.53445,16.27561 15.53445,19.59719 0,3.9025 -4.28019,8.73098 -7.67856,8.66217 -1.28532,-0.026 -3.54686,-0.77715 -5.02563,-1.66917 z m 6.77802,-6.43 c 0.83549,-1.3518 -14.85964,-18.56013 -16.92805,-18.56013 -0.49348,0 -1.28514,1.01078 -1.75923,2.24616 -0.61005,1.58968 1.38503,4.51675 6.82619,10.01498 7.67768,7.75825 10.14826,9.07027 11.86109,6.29899 z m -30.15381,-15.87714 c 19.87013,-10.13646 18.07291,-39.92146 -2.9376,-48.68422 -11.994,-5.002281 -25.59346,0.533812 -31.95853,13.00973 -4.14768,8.12971 -3.09102,20.43975 2.34051,27.26669 8.15522,10.25035 21.95665,13.81471 32.55562,8.4078 z m -19.47126,-5.18175 c -10.89994,-5.04073 -15.13178,-16.70503 -9.94652,-27.41578 9.41504,-19.447866 37.44353,-12.686181 37.45227,9.0351 0.006,14.51568 -14.66456,24.31915 -27.50575,18.38068 z m 15.94469,-6.92019 c 1.91755,-1.50826 4.17107,-5.02721 5.00781,-7.81988 2.99012,-9.97963 -5.63731,-20.08171 -15.56052,-18.22021 -8.82354,1.65523 -14.01477,12.90686 -9.77747,21.19202 3.90704,7.63944 13.78621,9.99529 20.33018,4.84807 z"
       id="path1" />
  </g>
</svg>
